<svg version="1" xmlns="http://www.w3.org/2000/svg" width="682.667" height="682.667" viewBox="0 0 512.000000 512.000000"><path d="M145.9 48.4c-.2.2-4.9.7-10.4 1-5.5.3-11.1.8-12.5 1-3.2.5-11.5 1.7-16 2.2-1.9.3-4.2.7-5 .9-.8.3-3.3.7-5.5 1-2.2.4-6.7 1.3-10 2.1-34.6 8.7-56.7 20.1-66 34.1-3 4.7-5.9 14.9-4.4 15.9.5.3.9 1.2.9 2.1 0 3.2 4 9.8 9 15 2.8 2.9 5.3 5.3 5.5 5.3.3 0 2.8 1.5 5.7 3.4 18.5 11.7 55.8 22.5 87.3 25.2 3.9.3 8.1.8 9.5 1.1 1.4.2 14.7.6 29.5.7 27.1.3 47.4-.9 64-3.9 1.7-.3 4.4-.7 6-1 1.7-.3 4.1-.7 5.5-1 1.4-.3 3.8-.8 5.5-1.1 10.1-1.8 28.3-7.5 39.6-12.4 29.7-12.8 42-30.9 32.4-47.6-6.3-11.2-24.9-23-46.5-29.8-3-1-6.4-2.1-7.5-2.5-2.6-1.1-18.2-4.7-26.5-6.2-7.5-1.3-7.6-1.4-19.5-2.8-4.9-.7-10.8-1.4-13-1.7-4.4-.6-57.1-1.5-57.6-1z"/><path d="M15.9 150.5c-.6 21.7 1.2 28.2 10.2 37.4 15 15.2 53.9 28.7 96.4 33.5 24.3 2.8 75.5 2.8 90.3.2.9-.2 4.4-.7 7.7-1.2 3.3-.4 6.2-.8 6.5-.9.3-.1 3-.5 6-.9 14.8-2.1 39.3-9.2 53-15.5 3-1.3 5.8-2.5 6.2-2.5.4-.1 1.3-.7 2-1.4.6-.6 1.6-1.2 2-1.2.5 0 2.2-1 3.7-2.1 1.6-1.2 3.4-1.8 4-1.5.7.5.9.1.5-.8-.3-.9-.2-1.6.4-1.6 1.7 0 10.1-9 12.5-13.3 2-3.9 2.2-5.7 2.4-23.2.1-10.5 0-18.3-.3-17.5-3.9 10.4-13 19.4-26.9 26.7-12.8 6.6-35.3 14.3-48.5 16.7-1.4.2-6.3 1.1-11 2-4.7.8-11.2 1.8-14.5 2.2-3.3.3-6.9.8-8 1-9.3 1.8-58.5 2.5-74 1-18.5-1.6-41.3-5.2-52-8-.5-.2-2.3-.6-4-1-8.1-2-27.7-9.1-33.5-12.1-3.6-1.8-8-4.1-9.9-5.1-7.6-4-18.1-15.5-20.1-22.2-.5-1.8-.9 2.1-1.1 11.3zM16.1 217c-.1 10 .4 19.2 1 21.5 2.8 10.1 16.9 22 34.9 29.5 4.1 1.7 8.4 3.5 9.5 4 1.1.5 4.5 1.6 7.5 2.5 3 .8 6.9 2 8.5 2.5 1.7.5 6.2 1.6 10 2.5 3.9.8 7.7 1.7 8.6 1.9.9.2 4 .7 7 1.1 3 .4 5.6.8 5.9 1 .8.5 12.9 2 23.5 3 2.2.2 12.8.7 23.6 1.1l19.7.7.4-10.4c.3-9.4.7-11.1 3.8-17.4 1.9-3.9 3.5-7.2 3.7-7.5.2-.3-7.7-.5-17.5-.5-9.7-.1-22.3-.4-28-.8-9.1-.6-13.4-1.1-28.7-3.3-29.1-4.1-59-14.2-75.5-25.4-7.7-5.2-14.7-13.4-16.4-18.9-1.4-4.4-1.5-3.7-1.5 12.9zM320.9 224.4c-.2.2-4.9.7-10.3 1-5.5.4-10.9.8-12 1.1-1.2.2-3.9.6-6.1.9-40.4 5-75.7 17.9-91 33.3-3 3.1-5.5 6-5.5 6.6 0 .6-.8 1.9-1.7 2.9-1.3 1.4-1.7 3.8-1.8 9.1 0 6.1.4 7.9 2.8 11.9 3.4 5.8 5.7 8.4 11.9 13 2.6 2 4.4 3.9 4 4.3-.4.4-.2.5.3.3.6-.1 5.3 1.8 10.5 4.4 21.4 10.6 56.3 19 89.5 21.6 17.9 1.4 72.3.5 77.7-1.2.7-.3 3.6-.7 6.3-1 15.4-1.7 35.3-6.1 50.5-11.2 25.8-8.7 41.2-19.1 47.6-32.1 7.8-15.8-5.6-33.6-34.5-45.8-15.3-6.5-40.3-13.3-55.4-15-2.3-.3-5.3-.7-6.7-1-1.4-.2-5.4-.7-9-1.1-3.6-.3-7.4-.8-8.5-1.1-2.4-.6-58.1-1.4-58.6-.9zM16.4 264.4c-.3.8-.4 9.7-.2 19.8.4 20.9 1 22.9 9.4 31.2 3.8 3.8 18.5 14 20.4 14.1.3.1 2.8 1.1 5.5 2.4 12.5 5.7 33.2 11.6 51.5 14.6 12.4 2.1 13.5 2.2 20 3 3 .4 6.9.8 8.5 1 1.7.2 12.3.7 23.8 1.1l20.7.7-.2-17.7-.3-17.6-18.5-.5c-10.2-.3-19.6-.7-21-.9-1.4-.2-6.1-.8-10.5-1.2-4.4-.4-8.2-.8-8.5-.9-.3 0-3.2-.5-6.5-.9-21.8-2.8-48.2-10.5-64.8-18.8-16.8-8.3-29.8-21.3-28.4-28.4.5-2.6-.1-3.2-.9-1z"/><path d="M192.1 330.6c0 16.7.2 18.5 2.3 23 6.9 14.8 30 27.9 65.1 36.9 7.5 1.9 21.1 4.7 25 5 .6.1 3.5.5 6.5 1 24.4 3.6 73.3 4.1 97.5 1.1 22.6-2.9 36.7-5.7 52.8-10.7 26.3-8.1 43.8-18.9 51.5-31.9 2.6-4.4 2.7-5 3-23l.2-18.5-1.9 4.2c-7.5 16.1-33.6 30.4-70.6 38.7-12.5 2.8-14.1 3.1-28.5 5-16.7 2.3-29 3-51.5 3-19.2 0-33.5-.6-42.5-1.9-1.9-.2-5.4-.7-7.7-1-7.1-.8-11.8-1.5-14.3-2-1.4-.3-3.8-.8-5.3-1-1.6-.3-6.6-1.4-11-2.5-38.5-9.1-63.4-23.5-69.3-39.9-1.2-3.2-1.3-1.5-1.3 14.5zM15.8 337c-.6 15.6.6 29.1 3 33.6 7.2 14 30.4 27 63.2 35.5 8.2 2.2 8.5 2.2 18 4 7.1 1.3 8.1 1.4 15.5 2.4 2.8.3 6.1.8 7.5 1 6.1 1 21.8 1.8 36.9 1.9l16.4.1-.2-17c-.1-9.3-.4-17.1-.6-17.3-.1-.2-7.4-.5-16.1-.7-27.9-.7-52.8-3.4-68.4-7.5-1.9-.5-5-1.2-6.8-1.5-3.9-.7-21.2-6.1-26.2-8.2-9.2-3.9-17.7-8.1-21.9-10.8-9.1-5.9-16.4-13.9-18.7-20.3-1.2-3.6-1.3-3.5-1.6 4.8z"/><path d="M192.3 395.5c.2 21.7.6 23.1 9.4 31.9 2.6 2.7 4.7 5.3 4.5 5.8-.1.5.2.7.8.3.5-.3 2.9.7 5.2 2.3 7.2 4.9 26.1 13.2 35.8 15.7 20.3 5.3 38 8.7 52 10 3.6.4 7.9.9 9.5 1.1 1.7.3 15.2.6 30 .8 32.5.4 56.6-1.6 78.5-6.6 2.5-.5 5.6-1.2 7-1.4 6-1.2 23.8-6.6 29.5-9 21.5-9.1 31.8-16.5 38.3-27.4 2.6-4.4 2.7-5 3-23l.2-18.5-1.9 4.2c-7.4 16-33.4 30.2-70.6 38.7-13.1 3-13.6 3.1-36.7 6.1-14.7 2-54.7 2.6-73.3 1.2-9.5-.8-32-3.5-34.5-4.2-.8-.2-3.1-.7-5-1-24.4-4.1-57.3-16.8-68.2-26.4-6.1-5.4-10.8-11.4-12.4-15.9-1.3-3.3-1.4-1.7-1.1 15.3z"/></svg>