<svg version="1" xmlns="http://www.w3.org/2000/svg" width="341.333" height="341.333" viewBox="0 0 256.000000 256.000000"><path d="M93 21.4c0 .7-3.1 18.3-4.1 23.3-1 5.1-1.1 5.2-7.6 8.2-33.2 15.6-54.8 50.7-53.8 87.6.4 13.4 1 17.8 4.1 27.4 5 15.1 12.1 26.8 23.4 38.2 15.5 15.7 34.9 25.2 56.5 27.6 14.1 1.7 32.9-.1 23.5-2.2-9.8-2.2-19.6-9.9-24.1-19.1-2.7-5.5-3.3-7.9-3.5-14.4-.2-4.3.1-9.3.6-11.1.5-1.9 1.1-5.5 1.5-8.1.3-2.6.7-5.3 1-6 .2-.7.6-2.9.9-4.8 1.4-8.9 1.8-9.5 11.6-19.5 5.4-5.5 15.5-15.9 22.5-23 7-7.2 12.3-12.3 11.7-11.5-1.3 1.9-3.9 11.2-4.7 16.5-.3 2.3-.8 5.2-1.1 6.5-.2 1.4-.7 3.8-.9 5.3-.2 1.6-.6 4-1 5.5-.3 1.5-.7 4-1 5.7-.2 1.6-1.3 7.9-2.5 14-5.9 30.5-3.1 35.6 19.5 35.6 6 0 12.6-.3 14.5-.5 1.9-.3 5.8-.8 8.5-1.2 2.8-.3 6.9-.9 9.3-1.4 2.3-.4 4.2-.6 4.2-.3 0 .2-2.7 3-6.1 6.3-11.7 11.4-27.8 20.3-43.6 24.1-4.8 1.2-9.9 2.1-11.2 2.1-2.2 0-2.3.1-.5 1.1 2.6 1.5 31.7 1.4 41.9-.2 4.4-.6 11.2-1.9 15.2-2.8l7.1-1.6-.4-10.1c-1.1-21.7-1.3-19.6 2.8-25.1 6.6-8.6 14.2-26.3 16.3-37.5.3-1.9.8-8.9 1-15.5.4-9.4 0-13.9-1.5-20.9l-2-8.8 3.6-14.2c1.9-7.7 3.7-14.8 4-15.7.4-1.6 0-1.8-14.6-5.4-.3-.1-3.3-.5-6.8-1-6.1-.7-9.3-2.5-14.6-7.8-2.5-2.5-13.4-10-18.6-12.9-5.8-3.2-18-7.4-25-8.7-9.6-1.9-10.4-2-17.6-2l-7-.1 1.7-9.8c1-5.3 1.8-10.3 1.9-11 0-.9-4.1-1.2-17.5-1.2-9.6 0-17.5.2-17.5.4zm30.4 24.9c-.2 1.2-1.7 9.8-3.3 19.2-4 23.2-9.8 55.9-11.1 62.4-.5 2.9-1 5.5-1 5.6 0 .8-40.4 39.5-40.8 39-.2-.1.7-5.6 1.8-12.1 1.2-6.6 3.2-18.2 4.6-25.9 1.4-7.7 2.7-15.1 2.9-16.5.6-4.3 8.5-49.4 9-52 .5-2.3 1.4-7.5 1.9-10.8.1-.7.6-1.6 1.2-2.1.9-.9 10.4-4.9 13.4-5.7 7.5-1.8 19.7-4 20.7-3.7.6.3 1 1.4.7 2.6zm72.6 27c3 .3 4.3 1.3 9.2 7.8 5.5 7.1 10.5 16.1 13.4 24.3 1.2 3.4 1.2 3.7-.1 3.2-2-.7-18.2-3.3-26-4.1-11.9-1.2-22.4-.6-26.7 1.7-1 .5-1.8.6-1.8.2 0-.3 6-6.7 13.3-14.1 13.7-13.9 18.5-19.7 7.4-9-43.2 41.9-60.3 58.3-67.9 65.5l-2.4 2.2 2-11.4 2.1-11.4 7.4-7.9c4.1-4.3 15-15.6 24.3-25.2 9.4-9.5 16.5-17.2 16-17-.5.2-11 10.1-23.2 21.9-19.8 19.2-25.6 24.4-23.7 21.3.3-.5.9-2.5 1.2-4.4 2-11.8 9.1-25 16.9-31.4 4.8-3.9 14.7-8.6 22-10.4 2.7-.7 9-1.5 14-1.8 5-.3 9.2-.6 9.3-.7.2-.1 8.5.3 13.3.7zm-89.6 70.4c-.3 2.1-.9 5.6-1.4 7.8-.5 2.2-1.2 5.6-1.5 7.5-.4 2.5-2.2 5-6.4 9-11.4 10.9-11 10.7-19.2 10.4-4.1-.1-7.5-.2-7.6-.3-.1-.1 6.7-7.2 15.2-15.9 8.4-8.6 16.6-17.1 18.1-18.9 1.6-1.8 3-3.2 3.1-3.3.2 0 0 1.7-.3 3.7zm-6.4 33.7c-.6.6-2.2 1.1-3.5 1.1-2.5.1-2.5.1.8-3.3 3-3.2 3.2-3.2 3.5-1.2.2 1.2-.1 2.7-.8 3.4z"/></svg>